<svg xmlns="http://www.w3.org/2000/svg" width="249" height="249" fill="none" viewBox="0 0 249 249"><path fill="#FFC517" d="M114.021 131.659C114.021 131.659 83.8457 99.8685 79.8535 99.2542C75.8608 98.6398 15.5106 102.94 2.76406 107.24C-9.98251 111.539 25.4921 137.416 25.4921 137.416C25.4921 137.416 112.869 139.493 114.021 131.659Z"/><path fill="#FFC517" d="M113.638 131.372C113.638 131.372 156.751 102.877 160.744 103.491C164.737 104.106 244.314 120.353 248.614 125.574C252.914 130.795 217.831 153.595 217.831 153.595C217.831 153.595 123.159 139.227 113.638 131.372Z"/><path fill="#FFAC17" d="M112.601 131.363C99.8554 131.457 25.4916 137.416 25.4916 137.416C13.8207 136.235 16.8913 215.559 23.6486 226.928C30.4053 238.298 120.087 252.783 126.23 248.094C128.013 246.733 129.016 238.668 129.547 227.932C157.758 233.331 210.116 233.902 214.759 230.357C220.902 225.668 217.831 153.595 217.831 153.595L114.021 131.659C113.896 131.646 113.774 131.654 113.651 131.66C113.647 131.561 113.642 131.471 113.638 131.372C113.36 131.363 113.012 131.36 112.601 131.363Z"/><path fill="#fff" d="M31.0153 51.9773C34.5807 51.9773 63.5702 52.5766 63.5702 58.4328C63.5702 64.2884 34.5807 64.8877 31.0153 64.8877C27.4505 64.8877 24.5604 61.9976 24.5604 58.4328C24.5604 54.8669 27.4505 51.9773 31.0153 51.9773Z"/><path fill="#fff" d="M28.116 0.84402C31.1253 2.58143 70.2499 25.8452 67.3964 30.7874C64.5429 35.7296 24.8336 13.479 21.8244 11.7416C18.8152 10.0042 17.7837 6.15595 19.5217 3.14674C21.2596 0.137524 25.1068 -0.89339 28.116 0.84402Z"/><path fill="#fff" d="M52.6009 105.182C55.6101 103.445 77.1785 89.5721 74.325 84.6293C71.4715 79.6865 49.3185 92.5474 46.3093 94.2848C43.3001 96.0222 42.2686 99.8699 44.0066 102.88C45.7434 105.888 49.5912 106.92 52.6009 105.182Z"/><path fill="#fff" d="M217.936 51.9773C214.371 51.9773 185.381 52.5766 185.381 58.4328C185.381 64.2884 214.371 64.8877 217.936 64.8877C221.501 64.8877 224.391 61.9976 224.391 58.4328C224.391 54.8669 221.501 51.9773 217.936 51.9773Z"/><path fill="#fff" d="M220.835 0.84402C217.826 2.58143 178.702 25.8452 181.555 30.7874C184.409 35.7302 224.117 13.479 227.127 11.7416C230.136 10.0042 231.167 6.15595 229.43 3.14674C227.692 0.137524 223.845 -0.89339 220.835 0.84402Z"/><path fill="#fff" d="M196.351 105.182C193.341 103.445 171.773 89.5721 174.626 84.6293C177.48 79.6865 199.632 92.5474 202.642 94.2848C205.651 96.0222 206.682 99.8699 204.945 102.88C203.208 105.888 199.36 106.92 196.351 105.182Z"/><path fill="#3F3351" d="M123.654 114.936C121.967 114.969 120.626 116.363 120.658 118.049C120.658 118.05 120.658 118.05 120.658 118.05C120.726 121.529 120.688 126.914 119.564 131.687C110.303 129.722 101.365 128.853 94.1721 128.95C87.5048 129.04 82.5631 129.545 79.1346 131.592C78.2778 132.103 77.4177 132.777 76.847 133.926C76.2769 135.076 76.3054 136.691 76.8271 137.805C77.8704 140.034 79.6746 140.985 82.1417 142.129C92.9499 147.142 101.169 149.075 107.689 148.744C114.209 148.415 119.009 145.544 121.907 141.636C122.523 140.804 122.8 139.846 123.275 138.955C129.166 140.48 135.051 142.335 140.481 144.965C142.437 145.913 142.74 146.251 143.723 146.879C143.055 147.061 142.959 147.154 142.108 147.336C139.714 147.849 136.681 148.415 133.376 149.183C126.766 150.716 119.03 153.018 112.702 157.731C106.374 162.444 101.603 169.87 101.603 180.319C101.603 182.006 102.971 183.374 104.658 183.374C106.345 183.374 107.713 182.006 107.713 180.319C107.713 171.627 111.2 166.467 116.349 162.632C121.5 158.798 128.468 156.592 134.756 155.134C137.9 154.404 140.861 153.852 143.385 153.312C145.909 152.772 147.893 152.392 149.726 151.326C150.643 150.794 151.835 149.848 152.121 148.152C152.406 146.456 151.547 145.077 150.74 144.213C149.127 142.486 146.867 141.267 143.142 139.464C137.508 136.735 131.544 134.81 125.579 133.214C127.065 127.268 126.833 121.266 126.768 117.93C126.735 116.243 125.341 114.902 123.654 114.934C123.655 114.936 123.655 114.936 123.654 114.936ZM94.2556 135.061C100.682 134.975 108.818 135.722 117.269 137.436C117.158 137.605 117.117 137.84 116.999 138.001C115.068 140.605 112.395 142.39 107.379 142.643C102.364 142.897 94.9799 141.346 84.7122 136.585C84.3307 136.408 84.5317 136.485 84.2466 136.314C86.2918 135.752 89.5866 135.124 94.2556 135.061Z"/><path fill="#FFC517" d="M129.301 159.354C129.301 159.354 208.54 153.002 217.447 153.309C226.353 153.616 223.896 230.399 221.747 235.619C219.597 240.84 124.63 250.059 122.458 248.865C120.287 247.67 124.223 160.787 129.301 159.354Z"/><path fill="#FFC517" d="M25.4916 137.417L129.301 159.354C129.301 159.354 119.166 208.592 105.652 211.357C92.1383 214.121 19.6553 195.693 11.3633 188.629C3.07069 181.565 15.9703 139.03 25.4916 137.417Z"/><path fill="#fff" d="M138.343 221.062C136.362 232.355 136.902 239.087 141.945 238.87C146.987 238.653 167.336 236.698 171.839 233.441C176.341 230.183 175.26 218.673 172.019 217.804C168.777 216.936 142.845 218.239 138.343 221.062Z"/><path fill="#7738C7" d="M144.97 224.265C149.422 223.722 166.144 221.224 168.967 222.419C171.791 223.613 155.503 226.545 148.119 226.654C140.735 226.763 142.69 224.482 144.97 224.265Z"/><path fill="#7738C7" d="M144.428 230.997C144.428 230.997 161.638 227.902 164.951 229.912C168.263 231.921 146.382 232.518 144.264 232.952C142.146 233.386 141.061 231.921 144.428 230.997Z"/><path fill="#3F3351" d="M125.305 80.103C132.241 80.103 137.826 85.6871 137.826 92.6233V113.245C137.826 120.181 132.241 125.766 125.305 125.766C118.369 125.766 112.785 120.181 112.785 113.245V92.6233C112.785 85.6871 118.369 80.103 125.305 80.103Z"/><path fill="#FF4B3D" d="M124.807 0.0480116C96.4845 0.172497 73.5905 23.1679 73.5905 51.4908C73.5905 71.0334 84.6637 88.8882 102.17 97.5742C102.169 97.6372 102.169 97.6997 102.169 97.7628C102.169 110.39 112.406 110.828 125.033 110.827C137.661 110.827 147.897 110.39 147.897 97.7628C147.897 97.6997 147.896 97.6372 147.895 97.5742C165.402 88.8887 176.476 71.0334 176.476 51.4908C176.476 23.08 153.444 0.0480116 125.033 0.0480116C124.958 0.0474727 124.883 0.0474727 124.807 0.0480116Z"/><path fill="#CF1531" d="M76.4822 68.4773C80.8489 80.9512 89.9353 91.5034 102.17 97.5735C102.17 97.6366 102.169 97.6991 102.169 97.7621C102.169 110.39 112.406 110.827 125.034 110.826C137.661 110.826 147.897 110.389 147.897 97.7621C147.897 97.6991 147.897 97.6366 147.896 97.5735C154.043 94.5239 159.392 90.3404 163.753 85.3535C127.283 100.578 96.4113 84.9304 76.4822 68.4773Z"/><path fill="#fff" d="M107.476 35.3868C106.3 35.3723 105.175 35.576 104.15 35.9731C101.417 37.0315 99.4506 39.255 98.4477 41.7684C97.4448 44.2819 97.3699 47.249 98.9095 49.7005C100.449 52.1519 103.527 53.6846 107.596 53.6846C114.702 53.6846 113.877 53.7207 116.38 53.7562C116.77 56.7073 117.018 59.7865 117.024 62.8733C117.037 70.3225 116.314 97.8619 115.975 110.544C117.371 110.67 118.837 110.743 120.36 110.781C120.72 97.7719 121.455 70.5828 121.441 62.8647C121.436 59.8577 121.215 56.7962 120.851 53.7907C121.247 53.801 128.174 53.801 128.571 53.7907C128.207 56.7962 127.987 59.8577 127.981 62.8647C127.967 70.585 128.704 97.7913 129.063 110.793C130.582 110.764 132.049 110.703 133.449 110.594C133.11 97.9465 132.385 70.3322 132.399 62.8733C132.405 59.7865 132.654 56.7073 133.043 53.7562C135.546 53.7207 134.72 53.6846 141.827 53.6846C145.896 53.6846 148.976 52.1519 150.516 49.7005C152.055 47.249 151.982 44.2819 150.978 41.7684C149.975 39.255 148.005 37.0315 145.272 35.9731C143.905 35.4439 142.361 35.2575 140.754 35.4752C139.147 35.6929 137.477 36.3148 135.864 37.3969C132.387 39.7298 130.546 43.8103 129.442 48.3435C129.363 48.6696 129.35 49.0382 129.278 49.3696C128.652 49.3842 120.77 49.3842 120.144 49.3696C120.073 49.0376 120.06 48.6696 119.98 48.3435C118.876 43.8109 117.034 39.7298 113.557 37.3969C111.944 36.3142 110.275 35.6924 108.668 35.4752C108.267 35.4208 107.869 35.3917 107.476 35.3868ZM107.461 39.7589C107.668 39.7589 107.88 39.774 108.1 39.8042C108.978 39.9254 109.962 40.3026 111.097 41.0641C113.105 42.4113 114.698 45.3785 115.67 49.333C113.049 49.3001 114.072 49.2667 107.597 49.2667C104.542 49.2667 103.276 48.3479 102.65 47.3509C102.023 46.3539 101.962 44.8747 102.549 43.4051C103.135 41.935 104.334 40.6378 105.744 40.0919C106.273 39.8871 106.84 39.7589 107.461 39.7589ZM141.963 39.7589C142.583 39.7589 143.149 39.8866 143.679 40.0914C145.088 40.6373 146.288 41.935 146.875 43.4045C147.462 44.8747 147.401 46.3534 146.774 47.3504C146.147 48.3473 144.882 49.2661 141.827 49.2661C135.351 49.2661 136.374 49.2996 133.754 49.3324C134.726 45.3785 136.319 42.4113 138.327 41.0636C139.461 40.3021 140.446 39.9249 141.324 39.8036C141.543 39.774 141.756 39.7589 141.963 39.7589Z"/></svg>